<svg id="Capa_1" data-name="Capa 1" xmlns="http://www.w3.org/2000/svg" viewBox="0 0 577.54 222.68"><defs><style>.cls-1{fill:#fff;}</style></defs><title>Logo</title><path class="cls-1" d="M190.27,245.24a7.21,7.21,0,0,1-7-9c18.1-69.12,139-58.46,171.55-54.28l2.64-41.16c-60-42.22-95.11-57.1-106.5-61.29-12.31,13.4-56.92,58.16-106.74,62.37-44.63,3.77-83.37-14.65-99-23.46A370.27,370.27,0,0,0,27.28,174c-8,33.67,9.64,53.94,9.82,54.14a7.2,7.2,0,0,1-10.77,9.57c-.93-1-22.73-26.14-13.07-67,9-38,21.59-64.71,22.13-65.83A7.21,7.21,0,0,1,45.91,102c.44.3,45.31,29.87,97.11,25.49,51.45-4.35,99.77-60.46,100.25-61a7.2,7.2,0,0,1,7.39-2.28c1.57.43,39.45,11.15,118.43,67.16a7.2,7.2,0,0,1,3,6.33l-3.39,53a7.21,7.21,0,0,1-8.36,6.65c-1.45-.24-145.93-23.11-163.13,42.58A7.21,7.21,0,0,1,190.27,245.24Z" transform="translate(-10.79 -63.93)"/><path class="cls-1" d="M573.49,221.09a7.21,7.21,0,0,1-6.9-5.12c-8.25-27.26-55.12-26.87-92.79-26.55-21,.18-39.23.33-49.83-4.21-27.58-11.81-62-29.1-62.3-29.28a7.2,7.2,0,1,1,6.49-12.86c.34.17,34.32,17.26,61.49,28.9,7.82,3.35,25.42,3.2,44,3,42.47-.36,95.33-.79,106.7,36.79a7.21,7.21,0,0,1-6.9,9.29Z" transform="translate(-10.79 -63.93)"/><path class="cls-1" d="M172.46,286.61H23.51a7.2,7.2,0,0,1-7.21-7.2V235.07a7.2,7.2,0,0,1,7.06-7.2c.41,0,41.66-.82,134.45,1.7,44.35,1.2,83,5.76,120.37,10.17,43,5.08,83.68,9.87,132,9.87,80.8,0,167.18-38.24,168-38.63a7.21,7.21,0,0,1,10.15,6.57v22.88a7.2,7.2,0,0,1-3.71,6.3c-.88.49-22.28,12.16-77.56,27.74-49.43,13.94-112.84,15.44-199.54,4.74-57.67-7.12-109.34-8.78-127.85-9.16v9.35A7.2,7.2,0,0,1,172.46,286.61ZM30.72,272.21H165.25v-9.46a7.2,7.2,0,0,1,7.24-7.2,1310.92,1310.92,0,0,1,136.79,9.37c84.73,10.46,146.33,9.09,193.86-4.3,40.81-11.5,62.67-20.85,70.77-24.65V228.4C548.24,238.73,478.4,264,410.14,264c-49.12,0-92.09-5.07-133.65-10-37.06-4.37-75.38-8.89-119.07-10.08C86.62,242,46,242.07,30.72,242.19Z" transform="translate(-10.79 -63.93)"/><path class="cls-1" d="M271.93,109.26a7.2,7.2,0,0,1-6.15-10.94l9.61-15.82A7.21,7.21,0,0,1,287.71,90L278.1,105.8A7.2,7.2,0,0,1,271.93,109.26Z" transform="translate(-10.79 -63.93)"/><path class="cls-1" d="M301.32,125.36A7.21,7.21,0,0,1,295,114.64L304.37,98a7.21,7.21,0,0,1,12.58,7l-9.33,16.66A7.2,7.2,0,0,1,301.32,125.36Z" transform="translate(-10.79 -63.93)"/><path class="cls-1" d="M332.42,142a7.21,7.21,0,0,1-6.76-9.71l5.65-15.25a7.21,7.21,0,0,1,13.52,5l-5.65,15.25A7.21,7.21,0,0,1,332.42,142Z" transform="translate(-10.79 -63.93)"/></svg>